<svg width="106" height="21" viewBox="0 0 106 21" fill="none" xmlns="http://www.w3.org/2000/svg">
<path d="M7.2848 20.5277C5.76444 20.5277 4.45952 20.143 3.37003 19.3736C2.2867 18.598 1.45265 17.4808 0.867898 16.022C0.289299 14.5571 0 12.7936 0 10.7315C0.0061553 8.66951 0.298532 6.91525 0.877131 5.46875C1.46188 4.0161 2.29593 2.90814 3.37926 2.14489C4.46875 1.38163 5.7706 1 7.2848 1C8.79901 1 10.1009 1.38163 11.1903 2.14489C12.2798 2.90814 13.1139 4.0161 13.6925 5.46875C14.2772 6.9214 14.5696 8.67566 14.5696 10.7315C14.5696 12.7997 14.2772 14.5663 13.6925 16.0313C13.1139 17.4901 12.2798 18.6042 11.1903 19.3736C10.107 20.143 8.80516 20.5277 7.2848 20.5277ZM7.2848 17.6378C8.46662 17.6378 9.39915 17.0561 10.0824 15.8928C10.7718 14.7232 11.1165 13.0028 11.1165 10.7315C11.1165 9.22964 10.9595 7.9678 10.6456 6.94602C10.3317 5.92424 9.88849 5.15483 9.31605 4.63778C8.74361 4.11458 8.06653 3.85298 7.2848 3.85298C6.10914 3.85298 5.17969 4.43774 4.49645 5.60724C3.81321 6.7706 3.46851 8.47869 3.46236 10.7315C3.4562 12.2396 3.60701 13.5076 3.91477 14.5355C4.22869 15.5634 4.67187 16.339 5.24432 16.8622C5.81676 17.3793 6.49692 17.6378 7.2848 17.6378Z" fill="#00FFD0"/>
<path d="M24.6266 20.5277C23.1062 20.5277 21.8013 20.143 20.7118 19.3736C19.6285 18.598 18.7944 17.4808 18.2097 16.022C17.6311 14.5571 17.3418 12.7936 17.3418 10.7315C17.348 8.66951 17.6403 6.91525 18.2189 5.46875C18.8037 4.0161 19.6377 2.90814 20.7211 2.14489C21.8105 1.38163 23.1124 1 24.6266 1C26.1408 1 27.4427 1.38163 28.5321 2.14489C29.6216 2.90814 30.4557 4.0161 31.0343 5.46875C31.619 6.9214 31.9114 8.67566 31.9114 10.7315C31.9114 12.7997 31.619 14.5663 31.0343 16.0313C30.4557 17.4901 29.6216 18.6042 28.5321 19.3736C27.4488 20.143 26.147 20.5277 24.6266 20.5277ZM24.6266 17.6378C25.8084 17.6378 26.7409 17.0561 27.4242 15.8928C28.1136 14.7232 28.4583 13.0028 28.4583 10.7315C28.4583 9.22964 28.3013 7.9678 27.9874 6.94602C27.6735 5.92424 27.2303 5.15483 26.6578 4.63778C26.0854 4.11458 25.4083 3.85298 24.6266 3.85298C23.4509 3.85298 22.5215 4.43774 21.8382 5.60724C21.155 6.7706 20.8103 8.47869 20.8042 10.7315C20.798 12.2396 20.9488 13.5076 21.2566 14.5355C21.5705 15.5634 22.0137 16.339 22.5861 16.8622C23.1586 17.3793 23.8387 17.6378 24.6266 17.6378Z" fill="#00FFD0"/>
<path d="M42.6701 1.25852V20.1676H39.2447V4.59162H39.1339L34.7113 7.4169V4.2777L39.4109 1.25852H42.6701Z" fill="#00FFD0"/>
<path d="M54.4606 20.5277C52.9402 20.5277 51.6353 20.143 50.5458 19.3736C49.4625 18.598 48.6284 17.4808 48.0437 16.022C47.4651 14.5571 47.1758 12.7936 47.1758 10.7315C47.1819 8.66951 47.4743 6.91525 48.0529 5.46875C48.6377 4.0161 49.4717 2.90814 50.555 2.14489C51.6445 1.38163 52.9464 1 54.4606 1C55.9748 1 57.2766 1.38163 58.3661 2.14489C59.4556 2.90814 60.2897 4.0161 60.8683 5.46875C61.453 6.9214 61.7454 8.67566 61.7454 10.7315C61.7454 12.7997 61.453 14.5663 60.8683 16.0313C60.2897 17.4901 59.4556 18.6042 58.3661 19.3736C57.2828 20.143 55.9809 20.5277 54.4606 20.5277ZM54.4606 17.6378C55.6424 17.6378 56.5749 17.0561 57.2582 15.8928C57.9476 14.7232 58.2923 13.0028 58.2923 10.7315C58.2923 9.22964 58.1353 7.9678 57.8214 6.94602C57.5075 5.92424 57.0643 5.15483 56.4918 4.63778C55.9194 4.11458 55.2423 3.85298 54.4606 3.85298C53.2849 3.85298 52.3555 4.43774 51.6722 5.60724C50.989 6.7706 50.6443 8.47869 50.6381 10.7315C50.632 12.2396 50.7828 13.5076 51.0906 14.5355C51.4045 15.5634 51.8477 16.339 52.4201 16.8622C52.9925 17.3793 53.6727 17.6378 54.4606 17.6378Z" fill="#00FFD0"/>
</svg>
